# xmcd
#
# Track frame offsets: 
#        150
#        14092
#        34806
#        52821
#        72691
#        89305
#        111229
#        130118
#        150943
#        177507
#
# Disc length: 2606 seconds
#
# Revision: 1
# Processed by: cddbd v1.5.2PL0 Copyright (c) Steve Scherf et al.
# Submitted via: ExactAudioCopy v1.0b4
#
DISCID=830a2c0a
DTITLE=Climax Blues Band - Lucky For Some
DYEAR=1981
DGENRE=Blues Rock
TTITLE0=Victim
TTITLE1=Cuttin' Up Rough
TTITLE2=Shake It Lucy
TTITLE3=Oceans Apart
TTITLE4=Breakdown
TTITLE5=Darlin'
TTITLE6=This Time You're The Singer
TTITLE7=Last Chance Saloon
TTITLE8=They'd Never Believe Us
TTITLE9=Darlin' (Single version)
EXTD=
EXTT0=
EXTT1=
EXTT2=
EXTT3=
EXTT4=
EXTT5=
EXTT6=
EXTT7=
EXTT8=
EXTT9=
PLAYORDER=
